<svg xmlns="http://www.w3.org/2000/svg" xmlns:svg="http://www.w3.org/2000/svg" id="Layer_1" width="16" height="16" x="0" y="0" enable-background="new 0 0 100 100" version="1.1" viewBox="0 0 100 100" xml:space="preserve"><metadata id="metadata21"/><rect id="rect3" width="4" height="19" x="75" y="45" style="fill:#4d4d4d"/><polygon id="polygon5" points="21 0 21 19 25 19 25 4 75 4 75 19 79 19 79 0" style="fill:#4d4d4d"/><polygon id="polygon7" points="75 45 75 96 44 96 44 77 25 77 25 45 21 45 21 80 41 100 79 100 79 45" style="fill:#4d4d4d"/><rect id="rect9" width="38" height="3" x="31" y="45" style="fill:#4d4d4d"/><rect id="rect11" width="38" height="3" x="31" y="56" style="fill:#4d4d4d"/><rect id="rect13" width="38" height="3" x="31" y="67" style="fill:#4d4d4d"/><path id="path15" d="M0,21v48h19V59h-9V31h80v28h-9v10h19V21H0z M97,28h-4v-4h4V28z" style="fill:#4d4d4d"/></svg>