<svg xmlns="http://www.w3.org/2000/svg" xmlns:svg="http://www.w3.org/2000/svg" id="Layer_1" width="170" height="60" x="0" y="0" enable-background="new 0 0 792 612" version="1.1" viewBox="0 0 1346.4 475.2" xml:space="preserve"><metadata id="metadata3043"/><rect id="rect3026" width="1346.4" height="475.2" x="0" y="0" rx="50" ry="50" style="fill:#1a1a1a"/><path id="path3037" d="m 150.48,126.72 c -11.88,0 -23.76,11.88 -23.76,23.76 l 0,166.32 -47.52,23.76 0,11.88 c 0,0 0,11.88 11.88,11.88 l 356.4,0 c 11.88,0 11.88,-11.88 11.88,-11.88 l 0,-11.88 -47.52,-23.76 0,-166.32 c 0,-11.88 -11.88,-23.76 -23.76,-23.76 z m 0,23.66718 237.6,0 0,142.65282 -237.6,0 z" style="fill:#fff"/><text style="font-size:316.79998778999998876px;font-style:normal;font-weight:400;line-height:125%;letter-spacing:0;word-spacing:0;fill:#fff;fill-opacity:1;stroke:none;font-family:Sans" id="text2983" x="451.44" y="239.58" xml:space="preserve"><tspan id="tspan2985" x="451.44" y="239.58" style="font-size:126.71999999999999886px;font-style:normal;font-variant:normal;font-weight:600;font-stretch:normal;font-family:FreeSans;-inkscape-font-specification:FreeSans Semi-Bold;fill:#fff">Desktop app</tspan></text><text style="font-size:316.79998778999998876px;font-style:normal;font-weight:400;line-height:125%;letter-spacing:0;word-spacing:0;fill:#fff;fill-opacity:1;stroke:none;font-family:Sans" id="text2991" x="493.02" y="342.54" xml:space="preserve"><tspan id="tspan2993" x="493.02" y="342.54" style="font-size:71.28000000000000114px;font-style:normal;font-variant:normal;font-weight:400;font-stretch:normal;font-family:FreeSans;-inkscape-font-specification:FreeSans;fill:#fff">Windows, OS X, Linux</tspan></text></svg>