<svg xmlns="http://www.w3.org/2000/svg" xmlns:svg="http://www.w3.org/2000/svg" id="svg4375" width="32" height="32" version="1.1"><metadata id="metadata4380"/><g id="layer1" transform="translate(580.71429,-1.576468)"><path id="path2995" d="m -572.71429,4.576468 c -1.108,0 -2,0.892 -2,2 l 0,4 c 0,1.108 0.892,2 2,2 1.108,0 2,-0.892 2,-2 l 0,-4 c 0,-1.108 -0.892,-2 -2,-2 z m 16,0 c -1.108,0 -2,0.892 -2,2 l 0,4 c 0,1.108 0.892,2 2,2 1.108,0 2,-0.892 2,-2 l 0,-4 c 0,-1.108 -0.892,-2 -2,-2 z m -13,4 0,2 c 0,1.662 -1.338,3 -3,3 -1.662,0 -3,-1.338 -3,-3 l 0,-1.875 c -1.72799,0.4425402 -3,2.00525 -3,3.875 l 0,16 c 0,2.216 1.784,4 4,4 l 20,0 c 2.216,0 4,-1.784 4,-4 l 0,-16 c 0,-1.86975 -1.27201,-3.4324598 -3,-3.875 l 0,1.875 c 0,1.662 -1.338,3 -3,3 -1.662,0 -3,-1.338 -3,-3 l 0,-2 z m -4.90615,10.000125 19.8123,0 c 0.0554,0 0.0937,0.03835 0.0937,0.09375 l 0,9.81225 c 0,0.05539 -0.0384,0.09375 -0.0937,0.09375 l -19.8123,0 c -0.0554,0 -0.0937,-0.03835 -0.0937,-0.09375 l 0,-9.81225 c 0,-0.05543 0.0384,-0.09375 0.0937,-0.09375 z" style="fill:#fff;fill-opacity:1;stroke:none"/><path style="fill:#000;fill-opacity:1;stroke:none" id="path3763" d="m -572.71429,3.576468 c -1.108,0 -2,0.892 -2,2 l 0,4 c 0,1.108 0.892,2 2,2 1.108,0 2,-0.892 2,-2 l 0,-4 c 0,-1.108 -0.892,-2 -2,-2 z m 16,0 c -1.108,0 -2,0.892 -2,2 l 0,4 c 0,1.108 0.892,2 2,2 1.108,0 2,-0.892 2,-2 l 0,-4 c 0,-1.108 -0.892,-2 -2,-2 z m -13,4 0,2 c 0,1.662 -1.338,3 -3,3 -1.662,0 -3,-1.338 -3,-3 l 0,-1.875 c -1.72799,0.4425402 -3,2.00525 -3,3.875 l 0,16 c 0,2.216 1.784,4 4,4 l 20,0 c 2.216,0 4,-1.784 4,-4 l 0,-16 c 0,-1.86975 -1.27201,-3.4324598 -3,-3.875 l 0,1.875 c 0,1.662 -1.338,3 -3,3 -1.662,0 -3,-1.338 -3,-3 l 0,-2 z m -4.90615,10.000125 19.8123,0 c 0.0554,0 0.0937,0.03835 0.0937,0.09375 l 0,9.81225 c 0,0.05539 -0.0384,0.09375 -0.0937,0.09375 l -19.8123,0 c -0.0554,0 -0.0937,-0.03835 -0.0937,-0.09375 l 0,-9.81225 c 0,-0.05543 0.0384,-0.09375 0.0937,-0.09375 z"/></g></svg>