<svg xmlns="http://www.w3.org/2000/svg" xmlns:svg="http://www.w3.org/2000/svg" xmlns:xlink="http://www.w3.org/1999/xlink" id="svg3349" width="32" height="32" version="1.1"><defs id="defs3351"><linearGradient id="linearGradient3754"><stop style="stop-color:#fff;stop-opacity:1" id="stop3756" offset="0"/><stop style="stop-color:#fff;stop-opacity:.70779222" id="stop3758" offset="1"/></linearGradient><linearGradient id="linearGradient3528" x1="209.342" x2="209.342" y1="998.458" y2="1013.451" gradientUnits="userSpaceOnUse" xlink:href="#linearGradient3587-6-5-3-4-5-4-0-1-55-2"/><linearGradient id="linearGradient3587-6-5-3-4-5-4-0-1-55-2"><stop style="stop-color:#000;stop-opacity:1" id="stop3589-9-2-2-3-2-53-4-3-95-4" offset="0"/><stop style="stop-color:#363636;stop-opacity:1" id="stop3591-7-4-73-7-9-86-9-3-6-3" offset="1"/></linearGradient><linearGradient id="linearGradient3587-6-5-2-1"><stop id="stop3589-9-2-8-2" offset="0" style="stop-color:#000;stop-opacity:1"/><stop id="stop3591-7-4-0-2" offset="1" style="stop-color:#363636;stop-opacity:1"/></linearGradient></defs><metadata id="metadata3354"/><g id="layer1" transform="translate(573.14286,110.2963)"><path id="path5073" d="m -570.22204,-108.29572 c -0.50115,0 -0.92082,0.41966 -0.92082,0.92081 l 0,24.157882 c 0,0.51739 0.40324,0.920728 0.92082,0.920728 l 26.15768,0 c 0.51756,0 0.92081,-0.403165 0.92081,-0.920728 l 6.9e-4,-14.154116 c 0,-0.501097 -0.41966,-0.925235 -0.92081,-0.925235 l -21.07897,0 -7e-4,11.004713 c 0,0.480123 -0.52409,0.97706 -1.00422,0.97706 -0.48012,0 -0.99573,-0.496937 -0.99573,-0.97706 l 7e-4,-12.142797 c 0,-0.480124 0.40484,-0.862147 0.88497,-0.862147 l 4.59443,0 14.52051,5.2e-4 -7e-4,-2.95163 c 0,-0.56713 -0.42551,-1.04812 -0.99245,-1.04812 l -13.00724,0 0,-3.07907 c 0,-0.50118 -0.40586,-0.92081 -0.90701,-0.92081 z" style="fill:#000;fill-opacity:1;fill-rule:evenodd;stroke:none;display:inline"/><path style="opacity:1;fill:#fff;fill-opacity:1;fill-rule:evenodd;stroke:none;display:inline" id="rect3845-5" d="m -570.22204,-107.2957 c -0.50115,0 -0.92082,0.41966 -0.92082,0.92081 l 0,24.157884 c 0,0.51739 0.40324,0.920728 0.92082,0.920728 l 26.15768,0 c 0.51756,0 0.92081,-0.403165 0.92081,-0.920728 l 6.9e-4,-14.154116 c 0,-0.501097 -0.41966,-0.925235 -0.92081,-0.925235 l -21.07897,0 -7e-4,11.004713 c 0,0.480123 -0.52409,0.97706 -1.00422,0.97706 -0.48012,0 -0.99573,-0.496937 -0.99573,-0.97706 l 7e-4,-12.142797 c 0,-0.480124 0.40484,-0.862143 0.88497,-0.862143 l 4.59443,0 14.52051,5.2e-4 -7e-4,-2.951636 c 0,-0.56713 -0.42551,-1.04812 -0.99245,-1.04812 l -13.00724,0 0,-3.07907 c 0,-0.50118 -0.40586,-0.92081 -0.90701,-0.92081 z"/></g></svg>