<svg xmlns="http://www.w3.org/2000/svg" xmlns:svg="http://www.w3.org/2000/svg" id="svg4375" width="32" height="32" version="1.1"><metadata id="metadata4380"/><g id="layer1" transform="translate(581.71429,-2.0764682)"><path style="fill:#000;fill-opacity:1;fill-rule:nonzero;stroke:none" id="path4291" d="m -554.98993,2.0786484 c -4.7142,0.75967 -11.02325,1.541691 -15.72435,2.343787 -1.24488,0.607384 -0.96502,2.171403 -1.02008,3.306244 0,5.0638836 0,10.1277666 0,15.1916436 -2.62346,-0.493215 -5.82272,1.674544 -5.96148,5.106844 -0.2265,2.136875 1.66842,3.996904 3.72898,4.04692 3.68932,0.08956 6.21256,-2.358151 6.25258,-5.453711 -0.0402,-5.198808 0.012,-10.399665 0,-15.599277 0.57116,-0.0423 9.22205,-1.6930062 9.99999,-1.8029142 0,3.8942932 0,7.7885872 0,11.6828792 -2.29278,-0.549271 -5.22379,0.957442 -5.95053,4.0345 -0.30674,1.72477 0.273,3.88966 2.0231,4.619966 3.41645,1.569871 8.10651,-1.610073 7.91585,-5.342127 -0.053,-6.932337 0.0434,-13.867516 0,-20.8005996 -0.0898,-0.651515 -0.53122,-1.381183 -1.26406,-1.334155 z"/><path id="path4031-1" d="m -554.98993,3.0786486 c -4.7142,0.75967 -11.02325,1.541691 -15.72435,2.343787 -1.24488,0.607384 -0.96502,2.171403 -1.02008,3.306244 0,5.0638834 0,10.1277664 0,15.1916434 -2.62346,-0.493215 -5.82272,1.674544 -5.96148,5.106844 -0.2265,2.136875 1.66842,3.996904 3.72898,4.04692 3.68932,0.08956 6.21256,-2.358151 6.25258,-5.453711 -0.0402,-5.198808 0.012,-10.399665 0,-15.599277 0.57116,-0.0423 9.22205,-1.693006 9.99999,-1.802914 0,3.894293 0,7.788587 0,11.682879 -2.29278,-0.549271 -5.22379,0.957442 -5.95053,4.0345 -0.30674,1.72477 0.273,3.88966 2.0231,4.619966 3.41645,1.569871 8.10651,-1.610073 7.91585,-5.342127 -0.053,-6.932337 0.0434,-13.867516 0,-20.8005994 -0.0898,-0.651515 -0.53122,-1.381183 -1.26406,-1.334155 z" style="opacity:1;fill:#fff;fill-opacity:1;fill-rule:nonzero;stroke:none"/></g></svg>