<svg xmlns="http://www.w3.org/2000/svg" xmlns:svg="http://www.w3.org/2000/svg" xmlns:xlink="http://www.w3.org/1999/xlink" id="svg2403" width="16" height="16" version="1.0"><metadata id="metadata15"/><defs id="defs2405"><linearGradient id="linearGradient2392" x1="11.644" x2="11.644" y1="2.499" y2="15.003" gradientTransform="translate(1.0000001,1.1920928e-8)" gradientUnits="userSpaceOnUse" xlink:href="#linearGradient3678"/><linearGradient id="linearGradient2395" x1="8.496" x2="8.496" y1="-.062" y2="8.083" gradientTransform="matrix(1.0526316,0,0,0.9843625,0.578947,0.06024281)" gradientUnits="userSpaceOnUse" xlink:href="#linearGradient3678"/><linearGradient id="linearGradient3678"><stop id="stop3680" offset="0" style="stop-color:#fff;stop-opacity:1"/><stop id="stop3682" offset="1" style="stop-color:#e6e6e6;stop-opacity:1"/></linearGradient><linearGradient id="linearGradient3879" x1="8.496" x2="8.496" y1="-.062" y2="8.083" gradientTransform="matrix(1.0526316,0,0,0.9843625,0.578947,0.06024281)" gradientUnits="userSpaceOnUse" xlink:href="#linearGradient3678"/><linearGradient id="linearGradient3908" x1="11.644" x2="11.644" y1="2.499" y2="15.003" gradientTransform="translate(1.0000001,1.1920928e-8)" gradientUnits="userSpaceOnUse" xlink:href="#linearGradient3678"/><linearGradient id="linearGradient3914" x1="8.496" x2="8.496" y1="-.062" y2="8.083" gradientTransform="matrix(1.0526316,0,0,0.9843625,0.578947,0.06024281)" gradientUnits="userSpaceOnUse" xlink:href="#linearGradient3678"/><linearGradient id="linearGradient3916" x1="11.644" x2="11.644" y1="2.499" y2="15.003" gradientTransform="translate(1.0000001,1.1920928e-8)" gradientUnits="userSpaceOnUse" xlink:href="#linearGradient3678"/><linearGradient id="linearGradient3919" x1="11.644" x2="11.644" y1="2.499" y2="15.003" gradientTransform="translate(1.0000001,1.1920928e-8)" gradientUnits="userSpaceOnUse" xlink:href="#linearGradient3678"/><linearGradient id="linearGradient3922" x1="8.496" x2="8.496" y1="-.062" y2="8.083" gradientTransform="matrix(1.0526316,0,0,0.9843625,0.578947,0.06024281)" gradientUnits="userSpaceOnUse" xlink:href="#linearGradient3678"/><linearGradient id="linearGradient3925" x1="8.496" x2="8.496" y1="-.062" y2="15.217" gradientTransform="matrix(1.0526316,0,0,0.9843625,0.578947,0.06024281)" gradientUnits="userSpaceOnUse" xlink:href="#linearGradient3678"/><linearGradient id="linearGradient3942" x1="8.496" x2="8.496" y1="-.062" y2="15.217" gradientTransform="matrix(1.0526316,0,0,0.9843625,-0.42098964,0.06024281)" gradientUnits="userSpaceOnUse" xlink:href="#linearGradient3678"/></defs><path style="font-size:medium;font-style:normal;font-variant:normal;font-weight:400;font-stretch:normal;text-indent:0;text-align:start;text-decoration:none;line-height:normal;letter-spacing:normal;word-spacing:normal;text-transform:none;direction:ltr;block-progression:tb;writing-mode:lr-tb;text-anchor:start;baseline-shift:baseline;color:#000;fill:#000;fill-opacity:1;stroke:none;stroke-width:2;marker:none;visibility:visible;display:inline;overflow:visible;enable-background:accumulate;font-family:Sans;-inkscape-font-specification:Sans" id="path3781" d="m 8.0000634,0 c -0.4714045,0 -0.9610304,0.5419023 -0.95,1 l 0,6 c -0.00747,0.5283126 0.4216346,1 0.95,1 0.5283654,0 0.957472,-0.4716874 0.95,-1 l 0,-6 c 0.014622,-0.605105 -0.4785955,-1 -0.95,-1 z m -3.34375,2.5 c -0.087186,0.019294 -0.1716251,0.050959 -0.25,0.09375 -2.9994999,1.5715133 -3.91842874,4.7978566 -3.125,7.46875 C 2.0747421,12.733393 4.5611725,15 7.9688134,15 11.327833,15 13.846204,12.850562 14.687563,10.21875 15.528922,7.5869378 14.630363,4.3955638 11.562563,2.625 11.128957,2.3713639 10.503661,2.535122 10.250038,2.9687356 9.9964154,3.4023491 10.160192,4.0276401 10.593813,4.28125 c 2.390793,1.3798311 2.882452,3.4944109 2.28125,5.375 -0.601202,1.880589 -2.344037,3.4375 -4.9062496,3.4375 -2.575923,0 -4.297634,-1.650181 -4.875,-3.59375 C 2.5164474,7.5564313 3.0469519,5.451888 5.2813134,4.28125 5.6599659,4.0748887 5.8603711,3.5887067 5.7371222,3.1754605 5.6138734,2.7622144 5.1798937,2.4652349 4.7500634,2.5 4.7188384,2.49846 4.6875384,2.49846 4.6563134,2.5 z"/><path id="path3927" d="m 8.0000634,1 c -0.4714045,0 -0.9610304,0.5419023 -0.95,1 l 0,6 c -0.00747,0.5283126 0.4216346,1 0.95,1 0.5283654,0 0.957472,-0.4716874 0.95,-1 l 0,-6 c 0.014622,-0.605105 -0.4785955,-1 -0.95,-1 z m -3.34375,2.5 c -0.087186,0.019294 -0.1716251,0.050959 -0.25,0.09375 -2.9994999,1.5715133 -3.91842874,4.7978566 -3.125,7.46875 C 2.0747421,13.733393 4.5611725,16 7.9688134,16 11.327833,16 13.846204,13.850562 14.687563,11.21875 15.528922,8.5869378 14.630363,5.3955638 11.562563,3.625 11.128957,3.3713639 10.503661,3.535122 10.250038,3.9687356 9.9964154,4.4023491 10.160192,5.0276401 10.593813,5.28125 c 2.390793,1.3798311 2.882452,3.4944109 2.28125,5.375 -0.601202,1.880589 -2.344037,3.4375 -4.9062496,3.4375 -2.575923,0 -4.297634,-1.650181 -4.875,-3.59375 C 2.5164474,8.5564313 3.0469519,6.451888 5.2813134,5.28125 5.6599659,5.0748887 5.8603711,4.5887067 5.7371222,4.1754605 5.6138734,3.7622144 5.1798937,3.4652349 4.7500634,3.5 4.7188384,3.49846 4.6875384,3.49846 4.6563134,3.5 z" style="font-size:medium;font-style:normal;font-variant:normal;font-weight:400;font-stretch:normal;text-indent:0;text-align:start;text-decoration:none;line-height:normal;letter-spacing:normal;word-spacing:normal;text-transform:none;direction:ltr;block-progression:tb;writing-mode:lr-tb;text-anchor:start;baseline-shift:baseline;opacity:1;color:#000;fill:#fff;fill-opacity:1;stroke:none;stroke-width:2;marker:none;visibility:visible;display:inline;overflow:visible;enable-background:accumulate;font-family:Sans;-inkscape-font-specification:Sans"/></svg>