<svg xmlns="http://www.w3.org/2000/svg" xmlns:svg="http://www.w3.org/2000/svg" id="svg3875" width="16" height="16" version="1.1"><metadata id="metadata3880"/><g id="layer1" transform="translate(0,-1036.3622)"><path style="fill:#000;fill-opacity:1;stroke:none" id="path3086" d="m 1,1042.3622 0,4 3,0 3,3 1,0 0,-10 -1,0 -3,3 z"/><path style="fill:#000;fill-opacity:1;stroke:none" id="path3105" d="m 13.25,1039.3622 -0.78125,0.625 c 0.965189,1.1998 1.53125,2.7153 1.53125,4.375 0,1.6597 -0.566061,3.1752 -1.53125,4.375 l 0.78125,0.625 c 1.098257,-1.3697 1.75,-3.1078 1.75,-5 0,-1.8922 -0.651743,-3.6303 -1.75,-5 z m -1.5625,1.25 -0.8125,0.6563 c 0.687912,0.8565 1.125,1.9096 1.125,3.0937 0,1.1841 -0.437088,2.2372 -1.125,3.0938 l 0.8125,0.6562 c 0.823121,-1.0271 1.3125,-2.3314 1.3125,-3.75 0,-1.4186 -0.489379,-2.7229 -1.3125,-3.75 z m -1.5625,1.25 -0.78125,0.625 c 0.411273,0.5135 0.65625,1.1659 0.65625,1.875 0,0.7091 -0.244977,1.3615 -0.65625,1.875 l 0.78125,0.625 c 0.545316,-0.6836 0.875,-1.5576 0.875,-2.5 0,-0.9424 -0.329684,-1.8164 -0.875,-2.5 z"/></g></svg>